<svg width="1728" height="5610" viewBox="0 0 1782 5610" fill="none" xmlns="http://www.w3.org/2000/svg">
<g clip-path="url(#clip0_212_1561)">
<rect width="1728" height="5610" fill="#381D4F"/>
<g opacity="0.4">
<path opacity="0.0909091" d="M-624.437 3067.06C-624.437 3067.06 -2173.99 2245.02 -1625.52 1790.37C-1140.3 1388.15 1988.02 3145.56 635.525 1564.82C-716.969 -15.9318 -290.406 -286.368 543.235 85.7566C1376.88 457.881 2182.61 615.92 2699.76 256.114C3247.42 -124.917 1527.62 -802.05 1527.62 -802.05" stroke="white" stroke-width="9.09959"/>
<path opacity="0.181818" d="M-830.466 3178.76C-830.466 3178.76 -2239.44 2288 -1618.58 1860.52C-1069.31 1482.32 1759.19 3378.09 670.819 1740.65C-417.549 103.209 51.6964 -146.421 821.2 262.94C1590.7 672.3 2367.48 867.096 2941.61 532.636C3549.61 178.447 1947.29 -575.848 1947.29 -575.848" stroke="white" stroke-width="9.09959"/>
<path opacity="0.272727" d="M-1054.66 3280.8C-1054.66 3280.8 -2312.34 2328.1 -1623.8 1931.03C-1014.66 1579.74 1492.48 3599.44 676.523 1917.77C-139.438 236.095 368.92 9.17225 1068.43 452.653C1767.94 896.134 2509.84 1126.2 3136.58 819.636C3800.29 494.985 2327.65 -330.731 2327.65 -330.731" stroke="white" stroke-width="9.09959"/>
<path opacity="0.363636" d="M-1295.36 3372.37C-1295.36 3372.37 -2392.17 2364.98 -1641.2 2001.35C-976.825 1679.64 1189.89 3807.9 652.542 2094.79C115.199 381.684 658.799 179.194 1282.99 653.421C1907.18 1127.65 2608.57 1391.24 3283.15 1114.9C3997.52 822.255 2665.77 -68.5985 2665.77 -68.5985" stroke="white" stroke-width="9.09959"/>
<path opacity="0.454545" d="M-1550.8 3452.74C-1550.8 3452.74 -2478.4 2398.34 -1670.71 2070.9C-956.156 1781.22 853.631 4001.84 598.995 2270.34C344.359 538.839 919.066 362.324 1463.19 863.686C2007.31 1365.05 2662.84 1660.16 3380.13 1416.14C4139.73 1157.74 2958.99 208.527 2958.99 208.527" stroke="white" stroke-width="9.09959"/>
<path opacity="0.545455" d="M-1819.08 3521.28C-1819.08 3521.28 -2570.4 2427.88 -1712.14 2139.14C-952.847 1883.7 486.244 4179.77 516.254 2443.06C546.264 706.338 1147.7 557.141 1607.61 1081.82C2067.52 1606.51 2672.21 1930.89 3426.75 1721.06C4225.8 1498.85 3205.06 498.511 3205.06 498.511" stroke="white" stroke-width="9.09959"/>
<path opacity="0.636364" d="M-2098.22 3577.44C-2098.22 3577.44 -2667.54 2453.37 -1765.24 2205.52C-966.99 1986.25 90.4517 4340.31 404.878 2611.6C719.305 882.878 1342.9 762.134 1715.1 1306.14C2087.3 1850.15 2636.55 2201.34 3422.59 2027.29C4255 1842.98 3402.04 799.117 3402.04 799.117" stroke="white" stroke-width="9.09959"/>
<path opacity="0.727273" d="M-2386.14 3620.76C-2386.14 3620.76 -2769.13 2474.56 -1829.66 2269.49C-998.522 2088.07 -330.776 4482.2 265.674 2774.64C862.125 1067.08 1503.13 975.712 1784.78 1534.91C2066.44 2094.11 2556.06 2469.42 3367.63 2332.48C4227.07 2187.46 3548.37 1108.03 3548.37 1108.03" stroke="white" stroke-width="9.09959"/>
<path opacity="0.818182" d="M-2680.7 3650.88C-2680.7 3650.88 -2874.46 2491.28 -1904.97 2330.55C-1047.27 2188.36 -774.299 4604.34 99.6361 2930.93C973.571 1257.52 1627.1 1196.22 1816.07 1766.35C2005.05 2336.48 2431.32 2733.06 3262.23 2634.27C4142.15 2529.66 3642.89 1422.86 3642.89 1422.86" stroke="white" stroke-width="9.09959"/>
<path opacity="0.909091" d="M-2979.73 3667.54C-2979.73 3667.54 -2982.77 2503.38 -1990.64 2388.21C-1112.9 2286.32 -1236.79 4705.77 -92.0243 3079.25C1052.74 1452.72 1713.83 1421.96 1808.68 1998.68C1903.53 2575.4 2263.2 2990.24 3107.13 2930.35C4000.85 2866.93 3684.81 1741.19 3684.81 1741.19" stroke="white" stroke-width="9.09959"/>
<path d="M-3281 3670.59C-3281 3670.59 -3093.3 2510.71 -2086.07 2441.98C-1194.98 2381.18 -1714.79 4785.68 -307.896 3218.42C1098.99 1651.17 1762.61 1651.17 1762.61 2230.09C1762.61 2809.01 2052.95 3238.95 2903.48 3218.42C3804.19 3196.68 3673.79 2060.58 3673.79 2060.58" stroke="white" stroke-width="9.09959"/>
</g>
<g filter="url(#filter0_f_212_1561)">
<ellipse cx="812" cy="3109.5" rx="677" ry="304.5" fill="#4D2572"/>
</g>
<g filter="url(#filter1_f_212_1561)">
<ellipse cx="812" cy="3109.5" rx="292" ry="131.5" fill="#703A9B"/>
</g>
<g filter="url(#filter2_f_212_1561)">
<ellipse cx="480" cy="1444.5" rx="677" ry="304.5" fill="#4D2572"/>
</g>
<g filter="url(#filter3_f_212_1561)">
<ellipse cx="480" cy="1444.5" rx="292" ry="131.5" fill="#703A9B"/>
</g>
<g filter="url(#filter4_f_212_1561)">
<ellipse cx="1094" cy="4114.5" rx="677" ry="304.5" fill="#4D2572"/>
</g>
<g filter="url(#filter5_f_212_1561)">
<ellipse cx="1094" cy="4114.5" rx="292" ry="131.5" fill="#703A9B"/>
</g>
<g filter="url(#filter6_f_212_1561)">
<ellipse cx="-105" cy="4361.5" rx="677" ry="304.5" fill="#4D2572"/>
</g>
<g filter="url(#filter7_f_212_1561)">
<ellipse cx="-105" cy="4361.5" rx="292" ry="131.5" fill="#703A9B"/>
</g>
<g filter="url(#filter8_f_212_1561)">
<ellipse cx="32" cy="460.5" rx="677" ry="304.5" fill="#4D2572"/>
</g>
<g filter="url(#filter9_f_212_1561)">
<ellipse cx="32" cy="460.5" rx="292" ry="131.5" fill="#703A9B"/>
</g>
<g filter="url(#filter10_f_212_1561)">
<ellipse cx="1391" cy="1678.5" rx="677" ry="304.5" fill="#4D2572"/>
</g>
<g filter="url(#filter11_f_212_1561)">
<ellipse cx="1391" cy="1678.5" rx="292" ry="131.5" fill="#703A9B"/>
</g>
<circle cx="1488.75" cy="649.746" r="9.74638" fill="#D9D9D9"/>
<circle cx="1586.21" cy="649.746" r="9.74638" fill="#D9D9D9"/>
<circle cx="1683.67" cy="649.746" r="9.74638" fill="#D9D9D9"/>
<circle cx="1488.75" cy="712.123" r="9.74638" fill="#D9D9D9"/>
<circle cx="1586.21" cy="712.123" r="9.74638" fill="#D9D9D9"/>
<circle cx="1683.67" cy="712.123" r="9.74638" fill="#D9D9D9"/>
<circle cx="1488.75" cy="774.5" r="9.74638" fill="#D9D9D9"/>
<circle cx="1586.21" cy="774.5" r="9.74638" fill="#D9D9D9"/>
<circle cx="1683.67" cy="774.5" r="9.74638" fill="#D9D9D9"/>
<circle cx="1488.75" cy="836.877" r="9.74638" fill="#D9D9D9"/>
<circle cx="1586.21" cy="836.877" r="9.74638" fill="#D9D9D9"/>
<circle cx="1683.67" cy="836.877" r="9.74638" fill="#D9D9D9"/>
<circle cx="1488.75" cy="899.254" r="9.74638" fill="#D9D9D9"/>
<circle cx="1586.21" cy="899.254" r="9.74638" fill="#D9D9D9"/>
<circle cx="1683.67" cy="899.254" r="9.74638" fill="#D9D9D9"/>
<path opacity="0.0909091" d="M1941.14 -145.453C1941.14 -145.453 1703.54 -206.517 1634.19 -107.639C1562.13 -4.90741 1837.93 65.3907 1719.62 202.121C1601.31 338.852 1479.36 309.292 1265.67 253.594" stroke="white" stroke-width="3.89121"/>
<path opacity="0.181818" d="M1923.68 -115.319C1923.68 -115.319 1692.31 -196.858 1614.6 -104.402C1533.86 -8.3416 1802.49 85.727 1672.71 211.626C1542.94 337.525 1424.03 297.449 1216.01 223.338" stroke="white" stroke-width="3.89121"/>
<path opacity="0.272727" d="M1903.58 -86.8826C1903.58 -86.8826 1680.2 -188.276 1594.73 -102.945C1505.92 -14.2869 1765.33 102.836 1625.07 216.945C1484.82 331.055 1369.86 280.768 1169.08 188.809" stroke="white" stroke-width="3.89121"/>
<path opacity="0.363636" d="M1880.99 -60.3655C1880.99 -60.3655 1667.3 -180.842 1574.71 -103.285C1478.51 -22.7043 1726.73 116.582 1577.06 218.033C1427.39 319.484 1317.25 259.369 1125.26 150.261" stroke="white" stroke-width="3.89121"/>
<path opacity="0.454545" d="M1856.09 -35.9785C1856.09 -35.9785 1653.71 -174.621 1554.72 -105.428C1451.86 -33.5384 1686.99 126.851 1529.05 214.872C1371.11 302.892 1266.63 233.407 1084.88 107.981" stroke="white" stroke-width="3.89121"/>
<path opacity="0.545455" d="M1829.07 -13.9147C1829.07 -13.9147 1639.55 -169.668 1534.9 -109.367C1426.17 -46.7142 1646.43 133.558 1481.42 207.478C1316.41 281.398 1218.38 203.071 1048.25 62.2814" stroke="white" stroke-width="3.89121"/>
<path opacity="0.636364" d="M1800.15 5.64983C1800.15 5.64983 1624.92 -166.029 1515.42 -115.077C1401.64 -62.1397 1605.35 136.643 1434.52 195.9C1263.7 255.158 1172.87 168.585 1015.66 13.503" stroke="white" stroke-width="3.89121"/>
<path opacity="0.727273" d="M1769.55 22.5597C1769.55 22.5597 1609.95 -163.738 1496.42 -122.524C1378.47 -79.7038 1564.07 136.076 1388.73 180.22C1213.39 224.364 1130.45 130.204 987.357 -37.9898" stroke="white" stroke-width="3.89121"/>
<path opacity="0.818182" d="M1737.5 36.6782C1737.5 36.6782 1594.75 -162.821 1478.06 -131.658C1356.82 -99.2812 1522.91 131.854 1344.39 160.548C1165.88 189.242 1091.46 88.212 963.565 -91.8132" stroke="white" stroke-width="3.89121"/>
<path opacity="0.909091" d="M1704.26 47.8895C1704.26 47.8895 1579.44 -163.292 1460.48 -142.418C1336.88 -120.731 1482.2 124.001 1301.86 137.027C1121.52 150.053 1056.19 42.9209 944.471 -147.566" stroke="white" stroke-width="3.89121"/>
<path d="M1670.09 56.1007C1670.09 56.1007 1564.15 -165.156 1443.82 -154.73C1318.8 -143.897 1442.23 112.568 1261.44 109.827C1080.65 107.085 1024.91 -5.33242 930.223 -204.831" stroke="white" stroke-width="3.89121"/>
<circle cx="46.9925" cy="1011.75" r="9.74638" fill="#D9D9D9"/>
<circle cx="144.457" cy="1011.75" r="9.74638" fill="#D9D9D9"/>
<circle cx="241.92" cy="1011.75" r="9.74638" fill="#D9D9D9"/>
<circle cx="46.9925" cy="1074.12" r="9.74638" fill="#D9D9D9"/>
<circle cx="144.457" cy="1074.12" r="9.74638" fill="#D9D9D9"/>
<circle cx="241.92" cy="1074.12" r="9.74638" fill="#D9D9D9"/>
<circle cx="46.9925" cy="1136.5" r="9.74638" fill="#D9D9D9"/>
<circle cx="144.457" cy="1136.5" r="9.74638" fill="#D9D9D9"/>
<circle cx="241.92" cy="1136.5" r="9.74638" fill="#D9D9D9"/>
<circle cx="46.9925" cy="1198.88" r="9.74638" fill="#D9D9D9"/>
<circle cx="144.457" cy="1198.88" r="9.74638" fill="#D9D9D9"/>
<circle cx="241.92" cy="1198.88" r="9.74638" fill="#D9D9D9"/>
<circle cx="46.9925" cy="1261.25" r="9.74638" fill="#D9D9D9"/>
<circle cx="144.457" cy="1261.25" r="9.74638" fill="#D9D9D9"/>
<circle cx="241.92" cy="1261.25" r="9.74638" fill="#D9D9D9"/>
<g opacity="0.4">
<path opacity="0.0909091" d="M2338.8 4179.35C2338.8 4179.35 1704.6 4016.36 1519.47 4280.28C1327.12 4554.5 2063.31 4742.14 1747.52 5107.11C1431.72 5472.08 1106.21 5393.18 535.821 5244.5" stroke="white" stroke-width="8.91053"/>
<path opacity="0.181818" d="M2292.19 4259.79C2292.19 4259.79 1674.62 4042.14 1467.19 4288.93C1251.67 4545.33 1968.71 4796.43 1622.31 5132.48C1275.9 5468.54 958.51 5361.57 403.246 5163.75" stroke="white" stroke-width="8.91053"/>
<path opacity="0.272727" d="M2238.54 4335.69C2238.54 4335.69 1642.28 4065.04 1414.13 4292.81C1177.09 4529.46 1869.51 4842.1 1495.14 5146.68C1120.76 5451.27 813.901 5317.04 277.991 5071.58" stroke="white" stroke-width="8.91053"/>
<path opacity="0.363636" d="M2178.24 4406.47C2178.24 4406.47 1607.84 4084.89 1360.71 4291.91C1103.94 4507 1766.48 4878.79 1366.98 5149.58C967.487 5420.38 673.493 5259.92 161.015 4968.68" stroke="white" stroke-width="8.91053"/>
<path opacity="0.454545" d="M2111.77 4471.56C2111.77 4471.56 1571.58 4101.49 1307.34 4286.19C1032.8 4478.08 1660.42 4906.2 1238.84 5141.15C817.262 5376.1 538.371 5190.62 53.2268 4855.83" stroke="white" stroke-width="8.91053"/>
<path opacity="0.545455" d="M2039.66 4530.46C2039.66 4530.46 1533.77 4114.71 1254.45 4275.67C964.228 4442.91 1552.14 4924.1 1111.69 5121.41C671.24 5318.72 409.576 5109.65 -44.543 4733.84" stroke="white" stroke-width="8.91053"/>
<path opacity="0.636364" d="M1962.46 4582.68C1962.46 4582.68 1494.73 4124.43 1202.44 4260.43C898.751 4401.73 1442.49 4932.33 986.518 5090.51C530.545 5248.68 288.099 5017.59 -131.539 4603.64" stroke="white" stroke-width="8.91053"/>
<path opacity="0.727273" d="M1880.78 4627.82C1880.78 4627.82 1454.77 4130.54 1151.73 4240.55C836.885 4354.85 1332.31 4930.82 864.288 5048.65C396.264 5166.48 174.881 4915.15 -207.081 4466.2" stroke="white" stroke-width="8.91053"/>
<path opacity="0.818182" d="M1795.24 4665.5C1795.24 4665.5 1414.19 4132.99 1102.72 4216.17C779.111 4302.59 1222.45 4919.55 745.941 4996.14C269.429 5072.73 70.7933 4803.06 -270.587 4322.53" stroke="white" stroke-width="8.91053"/>
<path opacity="0.909091" d="M1706.52 4695.43C1706.52 4695.43 1373.33 4131.73 1055.8 4187.45C725.886 4245.34 1113.77 4898.59 632.395 4933.36C151.021 4968.13 -23.3548 4682.17 -321.555 4173.71" stroke="white" stroke-width="8.91053"/>
<path d="M1615.29 4717.35C1615.29 4717.35 1332.5 4126.76 1011.32 4154.59C677.621 4183.5 1007.09 4868.07 524.521 4860.76C41.949 4853.44 -106.84 4553.37 -359.591 4020.86" stroke="white" stroke-width="8.91053"/>
</g>
<path opacity="0.2" fill-rule="evenodd" clip-rule="evenodd" d="M299 372.626C299 387.885 296.325 402.995 291.127 417.092C285.929 431.189 278.31 443.998 268.706 454.788C259.101 465.578 247.699 474.137 235.15 479.976C222.601 485.815 209.151 488.821 195.568 488.821C181.985 488.821 168.536 485.815 155.987 479.976C143.438 474.137 132.035 465.578 122.431 454.788C112.826 443.998 105.208 431.189 100.01 417.092C94.8118 402.995 92.1365 387.885 92.1365 372.626C92.1365 341.809 103.034 312.255 122.431 290.464C141.828 268.673 168.136 256.431 195.568 256.431C223 256.431 249.308 268.673 268.706 290.464C288.103 312.255 299 341.809 299 372.626ZM195.578 284.885C199.537 284.885 203.334 286.652 206.134 289.797C208.934 292.942 210.506 297.207 210.506 301.655V308.743C216.227 310.275 221.516 313.392 225.889 317.81C230.263 322.227 233.583 327.804 235.546 334.032C236.865 338.228 236.647 342.841 234.94 346.856C233.232 350.871 230.174 353.96 226.44 355.442C222.705 356.925 218.599 356.68 215.024 354.762C211.45 352.843 208.701 349.408 207.381 345.213C207.008 344.042 206.322 343.029 205.417 342.312C204.513 341.596 203.433 341.211 202.326 341.21H186.641C185.859 341.213 185.105 341.539 184.524 342.126C183.942 342.714 183.573 343.521 183.487 344.394C183.401 345.267 183.604 346.145 184.057 346.861C184.51 347.577 185.182 348.081 185.945 348.276L209.849 354.134C217.637 356.056 224.613 360.888 229.64 367.84C234.666 374.793 237.444 383.456 237.52 392.412C237.596 401.368 234.966 410.088 230.059 417.148C225.153 424.207 218.259 429.188 210.506 431.277V438.365C210.506 442.813 208.934 447.078 206.134 450.223C203.334 453.368 199.537 455.135 195.578 455.135C191.619 455.135 187.822 453.368 185.022 450.223C182.223 447.078 180.65 442.813 180.65 438.365V431.277C174.929 429.745 169.641 426.628 165.267 422.21C160.893 417.793 157.574 412.216 155.611 405.988C154.956 403.911 154.672 401.711 154.774 399.511C154.876 397.312 155.363 395.157 156.207 393.169C157.911 389.153 160.965 386.063 164.697 384.578C168.429 383.092 172.534 383.333 176.108 385.247C179.682 387.161 182.433 390.592 183.755 394.785C184.125 395.96 184.809 396.978 185.715 397.698C186.62 398.419 187.701 398.807 188.811 398.81H202.346C203.658 398.788 204.918 398.228 205.888 397.234C206.858 396.24 207.471 394.882 207.61 393.415C207.75 391.949 207.407 390.476 206.646 389.274C205.885 388.072 204.759 387.225 203.48 386.892L179.575 381.034C172.123 379.2 165.465 374.525 160.732 367.804C155.999 361.083 153.482 352.728 153.609 344.159C153.735 335.59 156.498 327.335 161.427 320.793C166.356 314.252 173.148 309.829 180.65 308.274V301.655C180.65 299.453 181.036 297.272 181.786 295.237C182.537 293.203 183.636 291.354 185.022 289.797C186.409 288.239 188.054 287.004 189.865 286.161C191.677 285.319 193.618 284.885 195.578 284.885ZM195.578 516.76C202.08 516.76 208.45 516.231 214.686 515.172C205.485 527.505 194.104 537.557 181.263 544.69C168.423 551.822 154.403 555.881 140.094 556.608C125.784 557.335 111.496 554.714 98.1346 548.912C84.7735 543.111 72.631 534.254 62.4766 522.904C52.3221 511.554 44.3772 497.958 39.1453 482.978C33.9133 467.998 31.5085 451.96 32.0833 435.881C32.658 419.802 36.1998 404.033 42.484 389.572C48.7683 375.111 57.6581 362.275 68.5899 351.876C65.9393 372.344 67.2411 393.214 72.407 413.066C77.5729 432.919 86.4818 451.291 98.5286 466.932C110.575 482.574 125.478 495.12 142.224 503.718C158.97 512.315 177.166 516.764 195.578 516.76Z" fill="white"/>
<path opacity="0.25" d="M1701 1390.13C1614.92 1390.13 1545 1468.76 1545 1565.58C1545 1662.4 1614.92 1741.03 1701 1741.03C1787.08 1741.03 1857 1662.4 1857 1565.58C1857 1468.76 1787.08 1390.13 1701 1390.13ZM1701 1404.16C1780.34 1404.16 1844.52 1476.35 1844.52 1565.58C1844.52 1654.81 1780.34 1727 1701 1727C1621.66 1727 1557.48 1654.81 1557.48 1565.58C1557.48 1476.35 1621.66 1404.16 1701 1404.16ZM1701 1425.22C1632.15 1425.22 1576.2 1488.14 1576.2 1565.58C1576.2 1597.01 1585.41 1626.11 1600.95 1649.51C1601.44 1650.25 1602.06 1650.87 1602.76 1651.34C1603.47 1651.82 1604.25 1652.13 1605.06 1652.26C1605.87 1652.39 1606.7 1652.34 1607.49 1652.12C1608.29 1651.89 1609.03 1651.49 1609.69 1650.94C1610.35 1650.38 1610.9 1649.69 1611.32 1648.9C1611.74 1648.11 1612.02 1647.23 1612.13 1646.32C1612.25 1645.41 1612.21 1644.48 1612.01 1643.58C1611.81 1642.69 1611.45 1641.85 1610.96 1641.11C1596.96 1620.04 1588.68 1593.93 1588.68 1565.58C1588.68 1495.73 1638.89 1439.26 1701 1439.26C1763.11 1439.26 1813.32 1495.73 1813.32 1565.58C1813.32 1635.43 1763.11 1691.91 1701 1691.91C1682.88 1691.91 1665.81 1687.1 1650.68 1678.56C1649.95 1678.14 1649.15 1677.89 1648.33 1677.83C1647.51 1677.76 1646.69 1677.87 1645.91 1678.16C1645.14 1678.45 1644.42 1678.91 1643.79 1679.51C1643.17 1680.12 1642.67 1680.85 1642.3 1681.67C1641.93 1682.5 1641.71 1683.4 1641.65 1684.31C1641.59 1685.23 1641.69 1686.16 1641.95 1687.03C1642.21 1687.91 1642.61 1688.72 1643.15 1689.42C1643.69 1690.11 1644.34 1690.69 1645.07 1691.1C1661.9 1700.6 1680.92 1705.94 1701 1705.94C1769.85 1705.94 1825.8 1643.02 1825.8 1565.58C1825.8 1488.14 1769.85 1425.22 1701 1425.22ZM1700.9 1481.43C1699.25 1481.46 1697.67 1482.23 1696.52 1483.56C1695.37 1484.89 1694.74 1486.69 1694.76 1488.55V1501.38C1693.95 1501.54 1693.15 1501.61 1692.35 1501.83C1692.34 1501.83 1692.34 1501.83 1692.33 1501.83C1677.68 1505.92 1667.06 1520.06 1667.06 1536.52C1667.06 1552.92 1677.62 1567 1692.2 1571.15C1700.87 1574.1 1706.06 1572.88 1712.1 1575.64C1720.43 1580.79 1724.19 1590.46 1721.79 1599.77C1719.37 1609.16 1710.98 1616.09 1701.02 1616.09C1691.07 1616.09 1682.66 1609.16 1680.24 1599.77C1680.02 1598.88 1679.64 1598.05 1679.12 1597.33C1678.61 1596.61 1677.98 1596.01 1677.26 1595.57C1676.54 1595.12 1675.75 1594.84 1674.94 1594.74C1674.12 1594.64 1673.3 1594.72 1672.51 1594.97C1671.72 1595.23 1670.99 1595.66 1670.35 1596.24C1669.71 1596.81 1669.17 1597.52 1668.78 1598.33C1668.38 1599.14 1668.13 1600.03 1668.04 1600.94C1667.95 1601.86 1668.02 1602.79 1668.25 1603.67C1671.75 1617.28 1682.28 1626.98 1694.76 1629.46V1642.62C1694.75 1643.55 1694.9 1644.47 1695.21 1645.33C1695.52 1646.2 1695.98 1646.98 1696.56 1647.64C1697.14 1648.31 1697.83 1648.83 1698.59 1649.19C1699.35 1649.55 1700.17 1649.73 1701 1649.73C1701.83 1649.73 1702.65 1649.55 1703.41 1649.19C1704.17 1648.83 1704.86 1648.31 1705.44 1647.64C1706.02 1646.98 1706.48 1646.2 1706.79 1645.33C1707.1 1644.47 1707.25 1643.55 1707.24 1642.62V1629.47C1719.74 1627.01 1730.28 1617.3 1733.78 1603.67C1737.86 1587.83 1731.05 1571.01 1717.82 1563.06C1717.66 1562.96 1717.49 1562.88 1717.32 1562.8C1707.95 1558.32 1701.66 1559.78 1695.69 1557.7C1695.57 1557.66 1695.46 1557.62 1695.34 1557.59C1685.76 1554.91 1679.54 1546.19 1679.54 1536.52C1679.54 1526.85 1685.76 1518.13 1695.34 1515.45C1704.93 1512.78 1714.98 1517.25 1719.72 1525.8C1720.15 1526.59 1720.72 1527.26 1721.39 1527.8C1722.05 1528.34 1722.81 1528.72 1723.61 1528.93C1724.4 1529.14 1725.23 1529.17 1726.04 1529.01C1726.85 1528.86 1727.62 1528.53 1728.32 1528.05C1729.01 1527.56 1729.62 1526.92 1730.09 1526.17C1730.57 1525.42 1730.91 1524.57 1731.1 1523.67C1731.28 1522.78 1731.31 1521.85 1731.17 1520.94C1731.04 1520.03 1730.74 1519.16 1730.31 1518.37C1725.16 1509.08 1716.64 1503.07 1707.24 1501.23V1488.55C1707.25 1487.61 1707.09 1486.68 1706.78 1485.81C1706.47 1484.94 1706 1484.15 1705.41 1483.48C1704.82 1482.82 1704.11 1482.3 1703.34 1481.94C1702.57 1481.59 1701.74 1481.42 1700.9 1481.43ZM1793.84 1589.42C1793.18 1589.46 1792.54 1589.75 1792.03 1590.23C1791.52 1590.71 1791.16 1591.36 1791 1592.09C1786.45 1611.66 1776.93 1629.37 1763.58 1643.01C1763.27 1643.32 1763.01 1643.69 1762.82 1644.11C1762.63 1644.53 1762.52 1644.99 1762.5 1645.46C1762.47 1645.93 1762.53 1646.4 1762.67 1646.84C1762.81 1647.28 1763.02 1647.69 1763.3 1648.04C1763.58 1648.39 1763.92 1648.67 1764.3 1648.86C1764.68 1649.06 1765.09 1649.17 1765.51 1649.19C1765.92 1649.2 1766.34 1649.12 1766.73 1648.96C1767.12 1648.79 1767.47 1648.53 1767.78 1648.21C1782.02 1633.65 1792.19 1614.75 1797.05 1593.87C1797.18 1593.36 1797.2 1592.83 1797.12 1592.3C1797.03 1591.78 1796.84 1591.29 1796.57 1590.86C1796.29 1590.43 1795.93 1590.08 1795.51 1589.83C1795.09 1589.58 1794.63 1589.44 1794.16 1589.42C1794.06 1589.41 1793.95 1589.41 1793.84 1589.42ZM1753.15 1652.9C1752.56 1652.91 1751.98 1653.11 1751.48 1653.49C1750.19 1654.43 1748.86 1655.33 1747.52 1656.2C1746.8 1656.67 1746.28 1657.43 1746.06 1658.33C1745.85 1659.23 1745.96 1660.19 1746.37 1661C1746.79 1661.8 1747.47 1662.39 1748.27 1662.64C1749.07 1662.88 1749.92 1662.75 1750.64 1662.29C1752.07 1661.36 1753.48 1660.38 1754.86 1659.38C1755.43 1658.97 1755.88 1658.37 1756.12 1657.65C1756.36 1656.93 1756.39 1656.14 1756.19 1655.41C1756 1654.67 1755.6 1654.03 1755.05 1653.58C1754.5 1653.12 1753.83 1652.88 1753.15 1652.9ZM1623.15 1658.93C1621.85 1658.88 1620.58 1659.29 1619.5 1660.09C1618.42 1660.9 1617.59 1662.06 1617.12 1663.42C1616.66 1664.77 1616.58 1666.26 1616.9 1667.67C1617.22 1669.08 1617.92 1670.35 1618.91 1671.29C1620.51 1672.87 1622.14 1674.4 1623.82 1675.88C1624.46 1676.48 1625.2 1676.92 1625.99 1677.19C1626.79 1677.45 1627.62 1677.54 1628.45 1677.44C1629.27 1677.34 1630.07 1677.05 1630.8 1676.6C1631.52 1676.15 1632.16 1675.54 1632.68 1674.81C1633.19 1674.07 1633.57 1673.23 1633.79 1672.33C1634.01 1671.43 1634.07 1670.49 1633.97 1669.57C1633.86 1668.64 1633.59 1667.75 1633.18 1666.94C1632.76 1666.13 1632.21 1665.43 1631.54 1664.86C1630.04 1663.53 1628.56 1662.14 1627.12 1660.72C1626.02 1659.62 1624.62 1658.98 1623.15 1658.93Z" fill="white" fill-opacity="0.8"/>
<circle cx="49.9054" cy="3779.21" r="6.09682" fill="#FBC1FD"/>
<circle cx="110.874" cy="3779.21" r="6.09682" fill="#FBC1FD"/>
<circle cx="171.843" cy="3779.21" r="6.09682" fill="#FBC1FD"/>
<circle cx="232.81" cy="3779.21" r="6.09682" fill="#FBC1FD"/>
<circle cx="49.9054" cy="3818.96" r="6.09682" fill="#FBC1FD"/>
<circle cx="110.874" cy="3818.96" r="6.09682" fill="#FBC1FD"/>
<circle cx="171.843" cy="3818.96" r="6.09682" fill="#FBC1FD"/>
<circle cx="232.81" cy="3818.96" r="6.09682" fill="#FBC1FD"/>
<circle cx="49.9054" cy="3858.7" r="6.09682" fill="#FBC1FD"/>
<circle cx="110.874" cy="3858.7" r="6.09682" fill="#FBC1FD"/>
<circle cx="171.843" cy="3858.7" r="6.09682" fill="#FBC1FD"/>
<circle cx="232.81" cy="3858.7" r="6.09682" fill="#FBC1FD"/>
<circle cx="49.9054" cy="3898.45" r="6.09682" fill="#FBC1FD"/>
<circle cx="110.874" cy="3898.45" r="6.09682" fill="#FBC1FD"/>
<circle cx="171.843" cy="3898.45" r="6.09682" fill="#FBC1FD"/>
<circle cx="232.81" cy="3898.45" r="6.09682" fill="#FBC1FD"/>
<circle cx="49.9054" cy="3938.19" r="6.09682" fill="#FBC1FD"/>
<circle cx="110.874" cy="3938.19" r="6.09682" fill="#FBC1FD"/>
<circle cx="171.843" cy="3938.19" r="6.09682" fill="#FBC1FD"/>
<circle cx="232.81" cy="3938.19" r="6.09682" fill="#FBC1FD"/>
<circle cx="50.2394" cy="3977.11" r="6.09682" fill="#FBC1FD"/>
<circle cx="111.206" cy="3977.11" r="6.09682" fill="#FBC1FD"/>
<circle cx="172.175" cy="3977.11" r="6.09682" fill="#FBC1FD"/>
<circle cx="233.144" cy="3977.11" r="6.09682" fill="#FBC1FD"/>
<circle cx="50.2394" cy="4016.85" r="6.09682" fill="#FBC1FD"/>
<circle cx="111.206" cy="4016.85" r="6.09682" fill="#FBC1FD"/>
<circle cx="172.175" cy="4016.85" r="6.09682" fill="#FBC1FD"/>
<circle cx="233.144" cy="4016.85" r="6.09682" fill="#FBC1FD"/>
<circle cx="50.2394" cy="4056.6" r="6.09682" fill="#FBC1FD"/>
<circle cx="111.206" cy="4056.6" r="6.09682" fill="#FBC1FD"/>
<circle cx="172.175" cy="4056.6" r="6.09682" fill="#FBC1FD"/>
<circle cx="233.144" cy="4056.6" r="6.09682" fill="#FBC1FD"/>
<circle cx="50.2394" cy="4096.34" r="6.09682" fill="#FBC1FD"/>
<circle cx="111.206" cy="4096.34" r="6.09682" fill="#FBC1FD"/>
<circle cx="172.175" cy="4096.34" r="6.09682" fill="#FBC1FD"/>
<circle cx="233.144" cy="4096.34" r="6.09682" fill="#FBC1FD"/>
<circle cx="50.2394" cy="4136.09" r="6.09682" fill="#FBC1FD"/>
<circle cx="111.206" cy="4136.09" r="6.09682" fill="#FBC1FD"/>
<circle cx="172.175" cy="4136.09" r="6.09682" fill="#FBC1FD"/>
<circle cx="233.144" cy="4136.09" r="6.09682" fill="#FBC1FD"/>
</g>
<defs>
<filter id="filter0_f_212_1561" x="-65" y="2605" width="1754" height="1009" filterUnits="userSpaceOnUse" color-interpolation-filters="sRGB">
<feFlood flood-opacity="0" result="BackgroundImageFix"/>
<feBlend mode="normal" in="SourceGraphic" in2="BackgroundImageFix" result="shape"/>
<feGaussianBlur stdDeviation="100" result="effect1_foregroundBlur_212_1561"/>
</filter>
<filter id="filter1_f_212_1561" x="320" y="2778" width="984" height="663" filterUnits="userSpaceOnUse" color-interpolation-filters="sRGB">
<feFlood flood-opacity="0" result="BackgroundImageFix"/>
<feBlend mode="normal" in="SourceGraphic" in2="BackgroundImageFix" result="shape"/>
<feGaussianBlur stdDeviation="100" result="effect1_foregroundBlur_212_1561"/>
</filter>
<filter id="filter2_f_212_1561" x="-397" y="940" width="1754" height="1009" filterUnits="userSpaceOnUse" color-interpolation-filters="sRGB">
<feFlood flood-opacity="0" result="BackgroundImageFix"/>
<feBlend mode="normal" in="SourceGraphic" in2="BackgroundImageFix" result="shape"/>
<feGaussianBlur stdDeviation="100" result="effect1_foregroundBlur_212_1561"/>
</filter>
<filter id="filter3_f_212_1561" x="-12" y="1113" width="984" height="663" filterUnits="userSpaceOnUse" color-interpolation-filters="sRGB">
<feFlood flood-opacity="0" result="BackgroundImageFix"/>
<feBlend mode="normal" in="SourceGraphic" in2="BackgroundImageFix" result="shape"/>
<feGaussianBlur stdDeviation="100" result="effect1_foregroundBlur_212_1561"/>
</filter>
<filter id="filter4_f_212_1561" x="217" y="3610" width="1754" height="1009" filterUnits="userSpaceOnUse" color-interpolation-filters="sRGB">
<feFlood flood-opacity="0" result="BackgroundImageFix"/>
<feBlend mode="normal" in="SourceGraphic" in2="BackgroundImageFix" result="shape"/>
<feGaussianBlur stdDeviation="100" result="effect1_foregroundBlur_212_1561"/>
</filter>
<filter id="filter5_f_212_1561" x="602" y="3783" width="984" height="663" filterUnits="userSpaceOnUse" color-interpolation-filters="sRGB">
<feFlood flood-opacity="0" result="BackgroundImageFix"/>
<feBlend mode="normal" in="SourceGraphic" in2="BackgroundImageFix" result="shape"/>
<feGaussianBlur stdDeviation="100" result="effect1_foregroundBlur_212_1561"/>
</filter>
<filter id="filter6_f_212_1561" x="-982" y="3857" width="1754" height="1009" filterUnits="userSpaceOnUse" color-interpolation-filters="sRGB">
<feFlood flood-opacity="0" result="BackgroundImageFix"/>
<feBlend mode="normal" in="SourceGraphic" in2="BackgroundImageFix" result="shape"/>
<feGaussianBlur stdDeviation="100" result="effect1_foregroundBlur_212_1561"/>
</filter>
<filter id="filter7_f_212_1561" x="-597" y="4030" width="984" height="663" filterUnits="userSpaceOnUse" color-interpolation-filters="sRGB">
<feFlood flood-opacity="0" result="BackgroundImageFix"/>
<feBlend mode="normal" in="SourceGraphic" in2="BackgroundImageFix" result="shape"/>
<feGaussianBlur stdDeviation="100" result="effect1_foregroundBlur_212_1561"/>
</filter>
<filter id="filter8_f_212_1561" x="-845" y="-44" width="1754" height="1009" filterUnits="userSpaceOnUse" color-interpolation-filters="sRGB">
<feFlood flood-opacity="0" result="BackgroundImageFix"/>
<feBlend mode="normal" in="SourceGraphic" in2="BackgroundImageFix" result="shape"/>
<feGaussianBlur stdDeviation="100" result="effect1_foregroundBlur_212_1561"/>
</filter>
<filter id="filter9_f_212_1561" x="-460" y="129" width="984" height="663" filterUnits="userSpaceOnUse" color-interpolation-filters="sRGB">
<feFlood flood-opacity="0" result="BackgroundImageFix"/>
<feBlend mode="normal" in="SourceGraphic" in2="BackgroundImageFix" result="shape"/>
<feGaussianBlur stdDeviation="100" result="effect1_foregroundBlur_212_1561"/>
</filter>
<filter id="filter10_f_212_1561" x="514" y="1174" width="1754" height="1009" filterUnits="userSpaceOnUse" color-interpolation-filters="sRGB">
<feFlood flood-opacity="0" result="BackgroundImageFix"/>
<feBlend mode="normal" in="SourceGraphic" in2="BackgroundImageFix" result="shape"/>
<feGaussianBlur stdDeviation="100" result="effect1_foregroundBlur_212_1561"/>
</filter>
<filter id="filter11_f_212_1561" x="899" y="1347" width="984" height="663" filterUnits="userSpaceOnUse" color-interpolation-filters="sRGB">
<feFlood flood-opacity="0" result="BackgroundImageFix"/>
<feBlend mode="normal" in="SourceGraphic" in2="BackgroundImageFix" result="shape"/>
<feGaussianBlur stdDeviation="100" result="effect1_foregroundBlur_212_1561"/>
</filter>
<clipPath id="clip0_212_1561">
<rect width="1728" height="5610" fill="white"/>
</clipPath>
</defs>
</svg>
